<svg class="svg-icon" style="width: 1em; height: 1em;vertical-align: middle;fill: currentColor;overflow: hidden;" viewBox="0 0 1024 1024" version="1.1" xmlns="http://www.w3.org/2000/svg"><path d="M512 112c-220.55 0-400 179.45-400 400s179.45 400 400 400 400-179.45 400-400-179.46-400-400-400z m0 736c-185.27 0-336-150.72-336-336s150.73-336 336-336 336 150.73 336 336-150.75 336-336 336z"  /><path d="M660.36 486.48c-51.81-29.45-102-59-154.81-89.66l-66.09-37.62c-24.46-12.62-35.5-6.31-40 1.31-5.67 9.7-5 26-5 71v35.77l0.26 151.82c-2.88 26.9 5.6 70.17 57.3 45.61l65.52-38.3c75.89-43.91 100.74-55.73 133.31-74.59l0.31-1.23c42.9-19.97 39.08-47.13 9.2-64.11z"  /></svg>